# xmcd
#
# Track frame offsets: 
#        150
#        21582
#        47853
#        66709
#        91015
#        113691
#        129015
#        150615
#        168931
#        181576
#        204585
#        226569
#        253250
#
# Disc length: 3733 seconds
#
# Revision: 0
# Processed by: cddbd v1.5.2PL0 Copyright (c) Steve Scherf et al.
# Submitted via: ExactAudioCopy v1.0b1
#
DISCID=a20e930d
DTITLE=Karim Baggili - Lea and Cash
DYEAR=2009
DGENRE=Country
TTITLE0=Consejo del tempo
TTITLE1=Tango mystic
TTITLE2=Tanto poco
TTITLE3=13.7
TTITLE4=element 7
TTITLE5=albi badawi
TTITLE6=Moto trankil
TTITLE7=Arthur Planck
TTITLE8=Lea
TTITLE9=Lea and Kash
TTITLE10=Play cash
TTITLE11=Sutra
TTITLE12=Patte d'ours
EXTD=
EXTT0=
EXTT1=
EXTT2=
EXTT3=
EXTT4=
EXTT5=
EXTT6=
EXTT7=
EXTT8=
EXTT9=
EXTT10=
EXTT11=
EXTT12=
PLAYORDER=
